<?xml version="1.0" standalone="no"?>
<!DOCTYPE svg PUBLIC "-//W3C//DTD SVG 20010904//EN"
 "http://www.w3.org/TR/2001/REC-SVG-20010904/DTD/svg10.dtd">
<svg version="1.0" xmlns="http://www.w3.org/2000/svg"
 width="1280.000000pt" height="1280.000000pt" viewBox="0 0 1280.000000 1280.000000"
 preserveAspectRatio="xMidYMid meet">
<metadata>
Created by potrace 1.16, written by Peter Selinger 2001-2019
</metadata>
<g transform="translate(0.000000,1280.000000) scale(0.100000,-0.100000)"
fill="#000000" stroke="none">
<path d="M4888 12312 l-2688 -487 1 -2690 c1 -1479 5 -3923 8 -5430 l6 -2739
70 -12 c39 -7 1249 -224 2690 -483 1441 -259 2628 -471 2638 -471 16 0 17 31
17 470 l0 470 1485 0 1485 0 0 5465 0 5465 -1485 0 -1485 0 0 465 0 465 -27
-1 c-16 0 -1237 -220 -2715 -487z m4822 -5907 l0 -4575 -1040 0 -1040 0 0
4575 0 4575 1040 0 1040 0 0 -4575z m-2875 391 c132 -62 215 -216 215 -396 0
-134 -37 -236 -118 -323 -211 -226 -522 -33 -522 323 0 290 219 494 425 396z"/>
</g>
</svg>
